<svg width="22" height="26" viewBox="0 0 22 26" fill="none" xmlns="http://www.w3.org/2000/svg">
<path d="M6.63073 24.5141C5.31163 23.9401 4.16372 23.1648 3.18698 22.188C2.21024 21.2113 1.4349 20.0634 0.860937 18.7443C0.286979 17.4252 0 16.0104 0 14.5H2.41667C2.41667 16.8562 3.23733 18.855 4.87865 20.4964C6.51997 22.1377 8.51875 22.9583 10.875 22.9583C13.2312 22.9583 15.23 22.1377 16.8714 20.4964C18.5127 18.855 19.3333 16.8562 19.3333 14.5C19.3333 12.1437 18.5127 10.145 16.8714 8.50365C15.23 6.86233 13.2312 6.04167 10.875 6.04167H10.6937L12.5667 7.91458L10.875 9.66667L6.04167 4.83333L10.875 0L12.5667 1.75208L10.6937 3.625H10.875C12.3854 3.625 13.8002 3.91198 15.1193 4.48594C16.4384 5.0599 17.5863 5.83524 18.563 6.81198C19.5398 7.78872 20.3151 8.93663 20.8891 10.2557C21.463 11.5748 21.75 12.9896 21.75 14.5C21.75 16.0104 21.463 17.4252 20.8891 18.7443C20.3151 20.0634 19.5398 21.2113 18.563 22.188C17.5863 23.1648 16.4384 23.9401 15.1193 24.5141C13.8002 25.088 12.3854 25.375 10.875 25.375C9.36458 25.375 7.94983 25.088 6.63073 24.5141Z" fill="#60A5FA"/>
</svg>
